<svg width="116" height="20" viewBox="0 0 116 20" fill="none" xmlns="http://www.w3.org/2000/svg">
<path d="M18.8958 0H1.10417C0.494167 0 0 0.494167 0 1.10417V18.8967C0 19.5058 0.494167 20 1.10417 20H10.6833V12.255H8.07667V9.23667H10.6833V7.01083C10.6833 4.4275 12.2608 3.02083 14.5658 3.02083C15.67 3.02083 16.6183 3.10333 16.895 3.14V5.84L15.2967 5.84083C14.0433 5.84083 13.8008 6.43667 13.8008 7.31V9.2375H16.79L16.4008 12.2558H13.8008V20H18.8975C19.5058 20 20 19.5058 20 18.8958V1.10417C20 0.494167 19.5058 0 18.8958 0Z" fill="#172339"/>
<path fill-rule="evenodd" clip-rule="evenodd" d="M106 0C103.284 0 102.944 0.0116667 101.878 0.06C98.2458 0.226667 96.2275 2.24167 96.0608 5.87667C96.0117 6.94417 96 7.28417 96 10C96 12.7158 96.0117 13.0567 96.06 14.1233C96.2267 17.755 98.2417 19.7733 101.877 19.94C102.944 19.9883 103.284 20 106 20C108.716 20 109.057 19.9883 110.123 19.94C113.752 19.7733 115.775 17.7583 115.939 14.1233C115.988 13.0567 116 12.7158 116 10C116 7.28417 115.988 6.94417 115.94 5.8775C115.777 2.24917 113.759 0.2275 110.124 0.0608333C109.057 0.0116667 108.716 0 106 0ZM106 1.8025C108.67 1.8025 108.987 1.8125 110.042 1.86083C112.752 1.98417 114.017 3.27 114.141 5.96C114.189 7.01417 114.198 7.33083 114.198 10.0008C114.198 12.6717 114.188 12.9875 114.141 14.0417C114.017 16.7292 112.754 18.0175 110.042 18.1408C108.987 18.1892 108.672 18.1992 106 18.1992C103.33 18.1992 103.013 18.1892 101.959 18.1408C99.2425 18.0167 97.9833 16.725 97.86 14.0408C97.8117 12.9867 97.8017 12.6708 97.8017 10C97.8017 7.33 97.8125 7.01417 97.86 5.95917C97.9842 3.27 99.2467 1.98333 101.959 1.86C103.014 1.8125 103.33 1.8025 106 1.8025ZM100.865 10C100.865 7.16417 103.164 4.865 106 4.865C108.836 4.865 111.135 7.16417 111.135 10C111.135 12.8367 108.836 15.1358 106 15.1358C103.164 15.1358 100.865 12.8358 100.865 10ZM106 13.3333C104.159 13.3333 102.667 11.8417 102.667 10C102.667 8.15917 104.159 6.66667 106 6.66667C107.841 6.66667 109.333 8.15917 109.333 10C109.333 11.8417 107.841 13.3333 106 13.3333ZM110.137 4.6625C110.137 4 110.675 3.4625 111.338 3.4625C112.001 3.4625 112.538 4 112.538 4.6625C112.538 5.325 112.001 5.8625 111.338 5.8625C110.675 5.8625 110.137 5.325 110.137 4.6625Z" fill="#172339"/>
<path d="M68 4.17221C67.2642 4.49888 66.4733 4.71888 65.6433 4.81805C66.4908 4.31055 67.1417 3.50638 67.4475 2.54805C66.655 3.01805 65.7767 3.35971 64.8417 3.54388C64.0942 2.74638 63.0267 2.24805 61.8467 2.24805C59.1975 2.24805 57.2508 4.71971 57.8492 7.28555C54.44 7.11471 51.4167 5.48138 49.3925 2.99888C48.3175 4.84305 48.835 7.25555 50.6617 8.47721C49.99 8.45555 49.3567 8.27138 48.8042 7.96388C48.7592 9.86471 50.1217 11.643 52.095 12.0389C51.5175 12.1955 50.885 12.2322 50.2417 12.1089C50.7633 13.7389 52.2783 14.9247 54.075 14.958C52.35 16.3105 50.1767 16.9147 48 16.658C49.8158 17.8222 51.9733 18.5014 54.29 18.5014C61.9083 18.5014 66.2125 12.0672 65.9525 6.29638C66.7542 5.71721 67.45 4.99471 68 4.17221Z" fill="#172339"/>
</svg>
